<svg width="49" height="49" viewBox="0 0 49 49" fill="none" xmlns="http://www.w3.org/2000/svg">
<path fill-rule="evenodd" clip-rule="evenodd" d="M0.0742188 24.8584C0.0742188 11.6036 10.8194 0.858398 24.0742 0.858398C37.3291 0.858398 48.0742 11.6036 48.0742 24.8584C48.0742 38.1132 37.3291 48.8584 24.0742 48.8584C10.8194 48.8584 0.0742188 38.1132 0.0742188 24.8584ZM24.0579 25.2437C27.597 25.2437 30.4738 22.4663 30.4738 19.052C30.4738 15.6365 27.597 12.8584 24.0579 12.8584C20.5196 12.8584 17.642 15.6365 17.642 19.052C17.642 22.4663 20.5196 25.2437 24.0579 25.2437ZM26.6702 30.2987C27.9762 30.0115 29.2357 29.5127 30.3958 28.8094C31.2738 28.2751 31.5383 27.1548 30.9851 26.3074C30.4323 25.458 29.2726 25.2024 28.3931 25.7367C25.765 27.332 22.3814 27.3316 19.7548 25.7367C18.8753 25.2024 17.7152 25.458 17.1636 26.3074C16.6104 27.1556 16.8741 28.2751 17.7521 28.8094C18.9122 29.512 20.1717 30.0115 21.4777 30.2987L17.8907 33.7612C17.1574 34.4698 17.1574 35.6185 17.8914 36.327C18.2588 36.6809 18.7394 36.858 19.2201 36.858C19.7015 36.858 20.1829 36.6809 20.5502 36.327L24.0736 32.9245L27.6 36.327C28.3332 37.0355 29.5229 37.0355 30.2568 36.327C30.9916 35.6185 30.9916 34.469 30.2568 33.7612L26.6702 30.2987Z" fill="#121212"/>
<path fill-rule="evenodd" clip-rule="evenodd" d="M24.0579 16.4881C25.5228 16.4881 26.7144 17.6379 26.7144 19.052C26.7144 20.4649 25.5228 21.6155 24.0579 21.6155C22.5942 21.6155 21.4014 20.4649 21.4014 19.052C21.4014 17.6379 22.5942 16.4881 24.0579 16.4881Z" fill="#121212"/>
</svg>
