<svg width="49" height="49" viewBox="0 0 49 49" fill="none" xmlns="http://www.w3.org/2000/svg">
<path fill-rule="evenodd" clip-rule="evenodd" d="M24.0742 0.858398C10.8194 0.858398 0.0742188 11.6036 0.0742188 24.8584C0.0742188 38.1132 10.8194 48.8584 24.0742 48.8584C37.3291 48.8584 48.0742 38.1132 48.0742 24.8584C48.0742 11.6036 37.3291 0.858398 24.0742 0.858398ZM26.0285 32.4347C25.7919 32.6842 25.3299 32.7346 25.3299 32.7346H23.7998C23.7998 32.7346 20.4242 32.9337 17.4504 29.8955C14.2075 26.5807 11.344 20.004 11.344 20.004C11.344 20.004 11.1787 19.5726 11.3577 19.3649C11.5593 19.1302 12.109 19.1154 12.109 19.1154L15.7664 19.0921C15.7664 19.0921 16.1107 19.1474 16.3573 19.3256C16.5614 19.4731 16.6754 19.7472 16.6754 19.7472C16.6754 19.7472 17.2664 21.2147 18.0489 22.542C19.5777 25.1341 20.2889 25.7007 20.8073 25.4229C21.5636 25.0186 21.3369 21.7591 21.3369 21.7591C21.3369 21.7591 21.3507 20.5768 20.9563 20.0495C20.6508 19.6415 20.0748 19.5222 19.8207 19.4891C19.6141 19.462 19.9521 18.9925 20.3904 18.7824C21.049 18.4665 22.2109 18.4481 23.5845 18.4616C24.655 18.4726 24.963 18.5378 25.3812 18.6373C26.3518 18.8672 26.3215 19.604 26.2561 21.1942C26.2366 21.6697 26.2139 22.2216 26.2139 22.8591C26.2139 23.0024 26.2096 23.1551 26.2052 23.3122C26.1825 24.1268 26.1565 25.0597 26.7034 25.407C26.9839 25.5839 27.6688 25.4328 29.3829 22.5764C30.1955 21.222 30.804 19.6304 30.804 19.6304C30.804 19.6304 30.938 19.3465 31.1446 19.2248C31.3562 19.1007 31.6417 19.1388 31.6417 19.1388L35.4906 19.1154C35.4906 19.1154 36.6476 18.979 36.8341 19.4927C37.0307 20.0298 36.4022 21.2859 34.8295 23.3434C33.3378 25.2956 32.6118 26.0143 32.6784 26.65C32.7271 27.1145 33.199 27.5346 34.1046 28.3591C35.995 30.082 36.5017 30.9884 36.6234 31.2061C36.6335 31.2242 36.641 31.2375 36.6463 31.2462C37.494 32.6264 35.706 32.7346 35.706 32.7346L32.2865 32.7813C32.2865 32.7813 31.5528 32.9239 30.5862 32.2725C30.0798 31.9315 29.585 31.3747 29.1138 30.8443C28.3941 30.0343 27.7292 29.2861 27.1617 29.4628C26.2088 29.7603 26.2376 31.7747 26.2376 31.7747C26.2376 31.7747 26.2452 32.2061 26.0285 32.4347Z" fill="black"/>
</svg>
