<svg width="67" height="67" viewBox="0 0 67 67" fill="none" xmlns="http://www.w3.org/2000/svg">
<rect y="0.60791" width="66.2907" height="66.2907" rx="7.36563" fill="white"/>
<path d="M29.6375 34.7243V31.991H32.7484C35.7335 31.991 37.8195 30.0669 37.8195 27.4414C37.8195 24.8699 36.0752 23.1256 32.7844 23.1256C29.7993 23.1256 27.8212 24.834 27.5335 27.5493H24.4225C24.7822 23.1436 28.055 20.3204 32.9283 20.3204C37.5677 20.3204 41.0743 23.1076 41.0743 27.0099C41.0743 30.2647 38.9884 32.6024 35.7515 33.1778V33.2498C39.6717 33.4835 42.1892 35.9112 42.1892 39.5616C42.1892 44.0213 38.1252 47.1323 33.0362 47.1323C27.6054 47.1323 24.1348 44.1292 23.901 39.8314H27.012C27.2997 42.4928 29.5116 44.327 33.0002 44.327C36.4348 44.327 38.8984 42.3849 38.8984 39.6695C38.8984 36.6125 36.5967 34.7243 32.8923 34.7243H29.6375Z" fill="#87AEF4"/>
</svg>
