<svg width="17" height="16" viewBox="0 0 17 16" fill="none" xmlns="http://www.w3.org/2000/svg">
<path d="M1.86914 7C1.31686 7 0.869141 7.44772 0.869141 8C0.869141 8.55228 1.31686 9 1.86914 9L1.86914 7ZM16.5762 8.70711C16.9668 8.31658 16.9668 7.68342 16.5762 7.29289L10.2123 0.928933C9.82176 0.538408 9.1886 0.538408 8.79807 0.928933C8.40755 1.31946 8.40755 1.95262 8.79807 2.34315L14.4549 8L8.79807 13.6569C8.40755 14.0474 8.40755 14.6805 8.79807 15.0711C9.1886 15.4616 9.82176 15.4616 10.2123 15.0711L16.5762 8.70711ZM1.86914 9L15.8691 9L15.8691 7L1.86914 7L1.86914 9Z" fill="#3E5174"/>
</svg>
