<svg width="61" height="61" viewBox="0 0 61 61" fill="none" xmlns="http://www.w3.org/2000/svg">
<path d="M5.25166 50.8874V54.2205C5.25166 54.6803 5.62486 55.054 6.08525 55.054H54.4193C54.8791 55.054 55.2529 54.6809 55.2529 54.2205V50.8874C55.2529 50.4276 54.8797 50.0538 54.4193 50.0538H6.08525C5.62545 50.0538 5.25224 50.4276 5.25224 50.8874H5.25166ZM5.74402 15.9597L29.9111 5.12608C30.1285 5.02959 30.3761 5.02959 30.5929 5.12608L54.76 15.9597C55.071 16.1004 55.2529 16.4352 55.2529 16.7201V20.0532C55.2529 20.513 54.8797 20.8867 54.4193 20.8867H6.08523C5.62543 20.8867 5.25164 20.5136 5.25164 20.0532V16.7201C5.25222 16.4393 5.43068 16.1027 5.74458 15.9597H5.74402ZM49.4188 44.2206V26.7203H50.2524C50.7122 26.7203 51.086 26.3471 51.086 25.8867V24.2202H52.7525C53.2123 24.2202 53.5861 23.847 53.5861 23.3866V21.7201H6.91871V23.3866C6.91871 23.8464 7.2919 24.2202 7.7523 24.2202H9.41884V25.8867C9.41884 26.3465 9.79203 26.7203 10.2524 26.7203H11.086V44.2206H10.2524C9.79263 44.2206 9.41884 44.5938 9.41884 45.0542V46.7207H7.7523C7.2925 46.7207 6.91871 47.0939 6.91871 47.5543V49.2209L53.5861 49.2203V47.5537C53.5861 47.0939 53.2129 46.7201 52.7525 46.7201H51.086V45.0536C51.086 44.5938 50.7128 44.22 50.2524 44.22L49.4188 44.2206ZM25.2518 24.2203V25.8868C25.2518 26.3466 25.625 26.7204 26.0854 26.7204H26.9189V44.2207H26.0854C25.6256 44.2207 25.2518 44.5939 25.2518 45.0543V46.7208H19.4185V45.0543C19.4185 44.5945 19.0453 44.2207 18.5849 44.2207H17.7513L17.7519 26.7204H18.5855C19.0453 26.7204 19.4191 26.3472 19.4191 25.8868V24.2203H25.2518ZM41.0854 24.2203V25.8868C41.0854 26.3466 41.4585 26.7204 41.9189 26.7204H42.7525V44.2207H41.9189C41.4591 44.2207 41.0854 44.5939 41.0854 45.0543V46.7208H35.2521V45.0543C35.2521 44.5945 34.8789 44.2207 34.4185 44.2207H33.5849V26.7204H34.4185C34.8783 26.7204 35.2521 26.3472 35.2521 25.8868V24.2203H41.0854Z" fill="#0066FF"/>
</svg>
