<svg width="60" height="61" viewBox="0 0 60 61" fill="none" xmlns="http://www.w3.org/2000/svg">
<path d="M4.9919 51.6081V54.9412C4.9919 55.401 5.36509 55.7747 5.82549 55.7747H54.1596C54.6194 55.7747 54.9932 55.4016 54.9932 54.9412V51.6081C54.9932 51.1483 54.62 50.7745 54.1596 50.7745H5.82549C5.36568 50.7745 4.99248 51.1483 4.99248 51.6081H4.9919ZM5.48425 16.6804L29.6513 5.84679C29.8687 5.75029 30.1163 5.75029 30.3332 5.84679L54.5002 16.6804C54.8112 16.8211 54.9931 17.1559 54.9931 17.4408V20.7739C54.9931 21.2337 54.62 21.6075 54.1596 21.6075H5.82547C5.36567 21.6075 4.99188 21.2343 4.99188 20.7739V17.4408C4.99246 17.16 5.17091 16.8234 5.48482 16.6804H5.48425ZM49.1591 44.9413V27.441H49.9926C50.4524 27.441 50.8262 27.0678 50.8262 26.6074V24.9409H52.4928C52.9526 24.9409 53.3264 24.5677 53.3264 24.1073V22.4408H6.65895V24.1073C6.65895 24.5671 7.03214 24.9409 7.49253 24.9409H9.15907V26.6074C9.15907 27.0672 9.53227 27.441 9.99266 27.441H10.8262V44.9413H9.99266C9.53286 44.9413 9.15907 45.3145 9.15907 45.7749V47.4414H7.49253C7.03273 47.4414 6.65895 47.8146 6.65895 48.275V49.9416L53.3264 49.941V48.2744C53.3264 47.8146 52.9532 47.4409 52.4928 47.4409H50.8262V45.7743C50.8262 45.3145 50.453 44.9407 49.9926 44.9407L49.1591 44.9413ZM24.992 24.941V26.6075C24.992 27.0673 25.3652 27.4411 25.8256 27.4411H26.6592V44.9414H25.8256C25.3658 44.9414 24.992 45.3146 24.992 45.775V47.4415H19.1587V45.775C19.1587 45.3152 18.7855 44.9414 18.3251 44.9414H17.4916L17.4921 27.4411H18.3257C18.7855 27.4411 19.1593 27.0679 19.1593 26.6075V24.941H24.992ZM40.8256 24.941V26.6075C40.8256 27.0673 41.1988 27.4411 41.6592 27.4411H42.4928V44.9414H41.6592C41.1994 44.9414 40.8256 45.3146 40.8256 45.775V47.4415H34.9923V45.775C34.9923 45.3152 34.6191 44.9414 34.1587 44.9414H33.3251V27.4411H34.1587C34.6185 27.4411 34.9923 27.0679 34.9923 26.6075V24.941H40.8256Z" fill="white"/>
</svg>
