<svg width="38" height="38" viewBox="0 0 38 38" fill="none" xmlns="http://www.w3.org/2000/svg">
<path d="M3.60655 31.9779V34.0542C3.60655 34.3407 3.83904 34.5735 4.12584 34.5735H34.2356C34.522 34.5735 34.7549 34.3411 34.7549 34.0542V31.9779C34.7549 31.6915 34.5224 31.4586 34.2356 31.4586H4.12584C3.83941 31.4586 3.60691 31.6915 3.60691 31.9779H3.60655ZM3.91327 10.2197L18.9682 3.47087C19.1036 3.41075 19.2578 3.41075 19.3929 3.47087L34.4478 10.2197C34.6415 10.3073 34.7549 10.5159 34.7549 10.6934V12.7697C34.7549 13.0561 34.5224 13.289 34.2356 13.289H4.12583C3.83939 13.289 3.60654 13.0565 3.60654 12.7697V10.6934C3.6069 10.5185 3.71807 10.3088 3.91362 10.2197H3.91327ZM31.1205 27.8248V16.923H31.6398C31.9262 16.923 32.1591 16.6905 32.1591 16.4037V15.3656H33.1973C33.4837 15.3656 33.7165 15.1331 33.7165 14.8463V13.8081H4.64504V14.8463C4.64504 15.1327 4.87752 15.3656 5.16432 15.3656H6.2025V16.4037C6.2025 16.6902 6.43498 16.923 6.72178 16.923H7.24107V27.8248H6.72178C6.43535 27.8248 6.2025 28.0573 6.2025 28.3441V29.3823H5.16432C4.87789 29.3823 4.64504 29.6148 4.64504 29.9016V30.9397L33.7165 30.9394V29.9012C33.7165 29.6148 33.4841 29.3819 33.1973 29.3819H32.1591V28.3437C32.1591 28.0573 31.9266 27.8245 31.6398 27.8245L31.1205 27.8248ZM16.0656 15.3656V16.4038C16.0656 16.6902 16.2981 16.9231 16.5849 16.9231H17.1042V27.8249H16.5849C16.2985 27.8249 16.0656 28.0574 16.0656 28.3442V29.3823H12.4318V28.3442C12.4318 28.0577 12.1993 27.8249 11.9125 27.8249H11.3932L11.3936 16.9231H11.9129C12.1993 16.9231 12.4322 16.6906 12.4322 16.4038V15.3656H16.0656ZM25.9292 15.3656V16.4038C25.9292 16.6902 26.1617 16.9231 26.4485 16.9231H26.9677V27.8249H26.4485C26.162 27.8249 25.9292 28.0574 25.9292 28.3442V29.3823H22.2953V28.3442C22.2953 28.0577 22.0629 27.8249 21.7761 27.8249H21.2568V16.9231H21.7761C22.0625 16.9231 22.2953 16.6906 22.2953 16.4038V15.3656H25.9292Z" fill="#3E5174"/>
</svg>
