<svg width="45" height="45" viewBox="0 0 45 45" fill="none" xmlns="http://www.w3.org/2000/svg">
<circle cx="22.5" cy="22.5" r="22.5" fill="white" fill-opacity="0.68"/>
<path d="M14 21C13.4477 21 13 21.4477 13 22C13 22.5523 13.4477 23 14 23V21ZM28.7071 22.7071C29.0976 22.3166 29.0976 21.6834 28.7071 21.2929L22.3431 14.9289C21.9526 14.5384 21.3195 14.5384 20.9289 14.9289C20.5384 15.3195 20.5384 15.9526 20.9289 16.3431L26.5858 22L20.9289 27.6569C20.5384 28.0474 20.5384 28.6805 20.9289 29.0711C21.3195 29.4616 21.9526 29.4616 22.3431 29.0711L28.7071 22.7071ZM14 23H28V21H14V23Z" fill="#0066FF"/>
</svg>
