<svg width="32" height="31" viewBox="0 0 32 31" fill="none" xmlns="http://www.w3.org/2000/svg">
<path d="M27.1127 0.00027756H4.87181C2.15148 0.00027756 -0.0078125 2.19909 -0.0078125 4.87724V18.5495C-0.0078125 21.2277 2.1922 23.4264 4.87181 23.4264L7.19214 23.428L6.51246 29.1045C6.27183 30.5834 7.91247 31.5439 9.11247 30.663L16.5125 23.3874H27.1126C29.8329 23.3874 31.9922 21.1886 31.9922 18.5104V4.87697C31.9922 2.15967 29.7923 0.00027756 27.1127 0.00027756ZM7.47182 14.1131C6.1515 14.1131 5.07181 13.034 5.07181 11.7144C5.07181 10.3947 6.1515 9.31565 7.47182 9.31565C8.79215 9.31565 9.91248 10.3947 9.91248 11.7144C9.91248 13.034 8.79215 14.1131 7.47182 14.1131ZM15.9923 14.1131C14.6719 14.1131 13.5923 13.034 13.5923 11.7144C13.5923 10.3947 14.6719 9.31565 15.9923 9.31565C17.3126 9.31565 18.4329 10.3947 18.4329 11.7144C18.3923 13.034 17.3126 14.1131 15.9923 14.1131ZM24.5127 14.1131C23.1924 14.1131 22.1127 13.034 22.1127 11.7144C22.1127 10.3947 23.1924 9.31565 24.5127 9.31565C25.833 9.31565 26.9534 10.3947 26.9534 11.7144C26.9127 13.034 25.833 14.1131 24.5127 14.1131Z" fill="#0066FF"/>
</svg>
