<svg width="49" height="49" viewBox="0 0 49 49" fill="none" xmlns="http://www.w3.org/2000/svg">
<path d="M3.62107 24.6935C3.61723 21.0717 4.56626 17.5129 6.37294 14.374L21.1132 24.6935L10.1745 31.3325C9.70186 31.5129 9.33254 31.8926 9.16511 32.3703C8.99811 32.8478 9.04955 33.375 9.30601 33.8111C9.56246 34.2471 9.9982 34.5482 10.4969 34.6342C10.9956 34.7198 11.5065 34.5816 11.8943 34.2564L25.0689 26.1555C25.5515 25.8372 25.8421 25.2978 25.8421 24.7193C25.8421 24.1411 25.5515 23.6013 25.0689 23.2831L6.85448 10.5557C6.47825 10.2962 6.0141 10.1975 5.56454 10.2808C5.12727 10.3488 4.733 10.5829 4.46389 10.9342C1.8049 14.7787 0.322225 19.3139 0.197113 23.9869C0.071962 28.6595 1.30926 33.268 3.75863 37.249C3.93944 37.7216 4.31913 38.0909 4.79667 38.258C5.27426 38.4253 5.80101 38.3739 6.23747 38.1174C6.6736 37.861 6.97458 37.4253 7.06019 36.9266C7.14619 36.4279 7.00798 35.9169 6.68242 35.5291C4.67768 32.2709 3.61762 28.5193 3.62116 24.6936L3.62107 24.6935Z" fill="white"/>
<path d="M24.2598 0.615724C19.6437 0.614188 15.1243 1.93947 11.2396 4.43414C10.7205 4.76584 10.4176 5.34939 10.4456 5.96477C10.4733 6.58056 10.8272 7.13452 11.3743 7.41825C11.9214 7.70196 12.5779 7.6724 13.0973 7.3407C15.9259 5.48447 19.1696 4.3562 22.5395 4.05556V7.4954C22.5395 8.11004 22.8674 8.67782 23.3995 8.98495C23.9316 9.29208 24.5873 9.29208 25.1194 8.98495C25.6515 8.67782 25.9794 8.11002 25.9794 7.4954V4.14155C30.837 4.55081 35.3932 6.6665 38.8404 10.1137C42.2877 13.5609 44.4034 18.1171 44.8126 22.9748H41.4588C40.8441 22.9748 40.2763 23.3026 39.9692 23.8347C39.6621 24.3668 39.6621 25.0226 39.9692 25.5547C40.2763 26.0868 40.8441 26.4146 41.4588 26.4146H44.8126C44.4033 31.2723 42.2877 35.8285 38.8404 39.2757C35.3932 42.7229 30.837 44.8386 25.9794 45.2478V41.894C25.9794 41.2794 25.6515 40.7116 25.1194 40.4044C24.5873 40.0973 23.9316 40.0973 23.3995 40.4044C22.8674 40.7116 22.5395 41.2794 22.5395 41.894V45.3338C18.5618 45.0175 14.7642 43.5402 11.6185 41.0854C11.258 40.8052 10.8012 40.6793 10.3478 40.7357C9.89474 40.7921 9.48243 41.0263 9.2022 41.3864C8.92155 41.7469 8.79564 42.2042 8.85207 42.6572C8.9085 43.1102 9.14269 43.5225 9.50318 43.8032C13.727 47.0652 18.9232 48.8155 24.2601 48.7736C30.6461 48.7736 36.7703 46.2368 41.2863 41.7212C45.8018 37.2052 48.3388 31.0803 48.3388 24.6949C48.3388 18.3096 45.8019 12.1847 41.2863 7.66872C36.7704 3.15319 30.6454 0.616259 24.2601 0.616259L24.2598 0.615724Z" fill="white"/>
</svg>
