<svg width="29" height="32" viewBox="0 0 29 32" fill="none" xmlns="http://www.w3.org/2000/svg">
<path d="M15.6641 4.00973C22.7293 4.52726 28.2624 10.5651 28.2624 17.8105C28.2624 25.4872 22.1335 31.6975 14.5575 31.6975C6.98145 31.6975 0.852539 25.4872 0.852539 17.8105C0.852539 10.5651 6.38558 4.52726 13.4508 4.00973V2.45715H11.3228V0.300781H17.707V2.45715H15.6641V4.00973ZM14.5575 6.1661C8.17318 6.1661 2.98063 11.3414 2.98063 17.8105C2.98063 24.2796 8.17318 29.5411 14.5575 29.5411C20.9417 29.5411 26.0492 24.2796 26.0492 17.8105C26.0492 11.3414 20.9417 6.1661 14.5575 6.1661Z" fill="#3E5174"/>
<path fill-rule="evenodd" clip-rule="evenodd" d="M14.5576 17.7249H24.6873C24.7725 23.4177 20.0907 28.1618 14.5576 28.1618C8.93945 28.1618 4.34277 23.504 4.34277 17.8112C4.34277 12.1184 8.93945 7.54688 14.5576 7.54688V17.7249Z" fill="#3E5174"/>
</svg>
