<svg width="60" height="61" viewBox="0 0 60 61" fill="none" xmlns="http://www.w3.org/2000/svg">
<path d="M31.7686 11.5281C43.1102 12.3588 51.9922 22.0511 51.9922 33.6819C51.9922 46.005 42.1537 55.9742 29.9922 55.9742C17.8307 55.9742 7.99219 46.005 7.99219 33.6819C7.99219 22.0511 16.8742 12.3588 28.2158 11.5281V9.03576H24.7996V5.57422H35.0481V9.03576H31.7686V11.5281ZM29.9922 14.9896C19.7437 14.9896 11.4083 23.2973 11.4083 33.6819C11.4083 44.0665 19.7437 52.5127 29.9922 52.5127C40.2406 52.5127 48.4394 44.0665 48.4394 33.6819C48.4394 23.2973 40.2406 14.9896 29.9922 14.9896Z" fill="white"/>
<path fill-rule="evenodd" clip-rule="evenodd" d="M29.9922 33.5435H46.2531C46.3898 42.682 38.8742 50.2974 29.9922 50.2974C20.9736 50.2974 13.5947 42.8205 13.5947 33.682C13.5947 24.5435 20.9736 17.2051 29.9922 17.2051V33.5435Z" fill="white"/>
</svg>
