<svg width="24" height="25" viewBox="0 0 24 25" fill="none" xmlns="http://www.w3.org/2000/svg">
<path d="M20.9383 19.3877L20.9383 10.0222C20.9296 9.89752 20.874 9.78075 20.7826 9.69547C20.6913 9.61019 20.571 9.56277 20.446 9.56277C20.321 9.56277 20.2007 9.61019 20.1094 9.69547C20.018 9.78075 19.9624 9.89752 19.9537 10.0222L19.9537 19.3877C19.9534 19.5343 19.9242 19.6794 19.8677 19.8146C19.8112 19.9499 19.7285 20.0726 19.6245 20.1758C19.5204 20.279 19.397 20.3607 19.2614 20.416C19.1257 20.4714 18.9804 20.4994 18.8339 20.4985L5.03557 20.4985C4.74128 20.4979 4.45923 20.3806 4.25114 20.1725C4.04305 19.9643 3.92587 19.6821 3.92524 19.3877L3.92524 5.58394C3.92587 5.28954 4.04305 5.00738 4.25114 4.79921C4.45923 4.59104 4.74128 4.47381 5.03557 4.47318L14.3974 4.47318C14.4622 4.47318 14.5263 4.46041 14.5862 4.4356C14.6461 4.41079 14.7005 4.37443 14.7463 4.32859C14.7921 4.28275 14.8285 4.22833 14.8533 4.16843C14.8781 4.10854 14.8908 4.04434 14.8908 3.97951C14.8908 3.91468 14.8781 3.85049 14.8533 3.79059C14.8285 3.7307 14.7921 3.67627 14.7463 3.63043C14.7005 3.58459 14.6461 3.54823 14.5862 3.52342C14.5263 3.49861 14.4622 3.48584 14.3974 3.48584L5.03557 3.48584C4.47972 3.48709 3.947 3.70855 3.55395 4.10174C3.16091 4.49494 2.93955 5.02788 2.93829 5.58394L2.93829 19.3877C2.93955 19.9438 3.16091 20.4767 3.55395 20.8699C3.947 21.2631 4.47972 21.4846 5.03557 21.4858L18.8339 21.4858C19.1098 21.4865 19.3832 21.4327 19.6383 21.3275C19.8934 21.2224 20.1254 21.068 20.3208 20.8731C20.5162 20.6783 20.6714 20.4468 20.7773 20.1919C20.8833 19.937 20.938 19.6638 20.9383 19.3877Z" fill="#808092"/>
<path d="M8.39744 13.5436C8.27186 13.664 8.17881 13.8142 8.12697 13.9803L7.1424 17.2793L10.4496 16.3039C10.6154 16.2547 10.7662 16.165 10.8885 16.0428L18.955 7.98505L16.452 5.48584L8.39744 13.5436Z" fill="#808092"/>
<path d="M20.9374 5.25085C20.9382 4.90183 20.8353 4.56045 20.6417 4.27004C20.4482 3.97964 20.1728 3.75331 19.8504 3.61979C19.5281 3.48628 19.1733 3.45159 18.8313 3.52014C18.4892 3.58869 18.1752 3.75739 17.9291 4.00481L17.1414 4.78804L19.6396 7.28487L20.4226 6.50164C20.5872 6.33787 20.7175 6.14289 20.8059 5.92812C20.8943 5.71336 20.939 5.48311 20.9374 5.25085Z" fill="#808092"/>
</svg>
