<svg width="44" height="27" viewBox="0 0 44 27" fill="none" xmlns="http://www.w3.org/2000/svg">
<path d="M34.7177 16.2973C34.1871 16.0401 33.4353 15.4735 31.9156 14.3171C30.4875 13.229 28.5325 11.738 27.5937 11.3027C25.8689 10.5006 23.2664 9.10671 22.3619 8.61751C20.9698 8.64269 19.5148 8.67327 18.7108 8.69485C18.6821 8.7524 18.6515 8.80816 18.6263 8.86032C18.0436 10.0006 17.1605 11.7218 15.7037 12.3045C15.2055 12.5042 14.5976 12.6139 13.9969 12.6139C13.0418 12.6139 12.3224 12.3279 11.916 11.7883C11.6372 11.416 11.5311 10.9538 11.6156 10.4988C11.7451 9.238 12.0886 6.73802 12.8728 5.08693C12.175 4.7668 11.0671 4.20743 10.202 3.76321C10.1192 3.72005 10.0383 3.68947 9.96276 3.66429V3.66249L3.68209 0.570828C3.29541 0.380184 2.83137 0.590612 2.7199 1.00787L0.277477 10.1372C0.189346 10.4645 0.354814 10.8062 0.665961 10.9411L5.39591 12.9879C5.73584 13.1354 6.06137 13.3152 6.34913 13.549C6.3887 13.5814 6.43007 13.6138 6.47503 13.6462C7.15669 14.1425 8.02717 14.8404 8.55413 15.5004C8.9552 16.0022 9.05411 16.6497 9.24657 17.3619C9.76275 16.7576 10.4732 16.3278 11.3023 16.3278C11.4749 16.3278 11.6476 16.3458 11.8131 16.3853C12.6889 16.585 13.313 17.227 13.653 18.0058C13.9515 17.8979 14.2591 17.8349 14.5666 17.8349C15.0037 17.8349 15.4299 17.9518 15.8022 18.1713C16.3238 18.4806 16.6691 18.9446 16.849 19.4986C17.0216 19.4626 17.1979 19.4374 17.3777 19.4374C17.8615 19.4374 18.3454 19.5759 18.777 19.8367C19.599 20.3349 19.9676 21.2432 19.8777 22.378C20.2788 22.3978 20.6529 22.5021 20.9658 22.691C22.0377 23.3457 22.2985 25.0201 22 26.2665L21.982 26.3402L21.9586 26.4049C22.1349 26.5596 22.3165 26.7107 22.4442 26.7539C24.6187 27.6765 25.8129 25.7647 25.5215 24.8276C26.2823 25.3708 27.8291 25.1028 28.5629 24.3384C29.2985 23.5759 28.9406 22.2359 28.9406 22.2359C28.9406 22.2359 30.9657 23.3942 32.4333 21.95C33.3865 21.0129 32.6294 19.8493 32.6294 19.8493C32.6294 19.8493 34.5502 20.6209 35.4495 19.3421C36.3092 18.1317 35.7698 17.1894 34.7177 16.2973Z" fill="white"/>
<path d="M20.8038 23.8617C20.3021 23.5577 19.2391 23.8401 18.7895 24.5325L18.6618 24.7681C18.2139 25.4606 18.3704 26.2627 19.0611 26.7106C19.2805 26.8527 19.5215 26.93 19.7643 26.948C20.2894 26.9857 20.7103 26.921 21.1671 26.0901L21.2193 25.948C21.4207 25.1135 21.2193 24.1152 20.8038 23.8617Z" fill="white"/>
<path d="M12.5413 19.8305C12.7247 19.0248 12.3164 17.9025 11.5107 17.7191C10.7067 17.5338 9.95136 18.4673 9.76972 19.273L9.68159 19.6543C9.49994 20.46 10.0035 21.2604 10.8093 21.442C10.8848 21.46 10.9585 21.4708 11.0341 21.4744C11.7589 21.5284 12.2931 21.0949 12.4585 20.3647L12.5413 19.8305Z" fill="white"/>
<path d="M15.108 19.349C14.3976 18.9282 13.4731 19.4821 13.0505 20.1925L12.3544 21.2249C11.9336 21.9353 12.2357 22.9299 12.9462 23.3508C13.153 23.4731 13.3077 23.4605 13.5307 23.4767C14.0775 23.5162 14.5145 23.1853 14.8131 22.6817L15.3724 21.4947C15.6889 20.759 15.8184 19.7699 15.108 19.349Z" fill="white"/>
<path d="M18.6173 21.011C17.9123 20.5847 17.1281 20.8689 16.7 21.574L15.7756 22.8959C15.3475 23.6027 15.5724 24.52 16.2774 24.948C16.4878 25.0739 16.7144 25.144 16.9428 25.1602C17.4842 25.1998 18.0292 24.9408 18.3295 24.4444L18.7863 23.4408C19.0867 22.6567 19.3223 21.4372 18.6173 21.011Z" fill="white"/>
<path d="M41.5294 1.00983C41.4179 0.592569 40.9539 0.382132 40.5672 0.572785L34.2865 3.66445C33.5024 4.03675 32.5294 4.50256 32.1337 4.47558C31.4341 4.42702 30.0384 3.55832 28.8585 3.32452C27.6805 3.09251 25.7075 2.55653 24.5187 2.20941C23.3298 1.8623 19.8822 3.02593 18.2923 3.29574C16.7006 3.56552 15.7834 3.86768 14.6125 4.90544C13.4416 5.94319 12.9686 10.7128 12.9686 10.7128C12.796 11.3081 14.3122 11.3836 15.1934 11.0311C16.688 10.434 17.6269 7.38548 17.9703 7.35311C18.3139 7.31894 22.6952 7.2398 22.6952 7.2398C22.6952 7.2398 26.1125 9.1031 28.1683 10.0581C30.2259 11.0131 35.321 15.4608 35.5172 15.0956C35.6431 14.86 36.8409 14.0471 37.6826 13.4931L43.5802 10.941C43.8913 10.8061 44.0568 10.4644 43.9687 10.137L41.5294 1.00983Z" fill="white"/>
</svg>
