<svg width="32" height="32" viewBox="0 0 32 32" fill="none" xmlns="http://www.w3.org/2000/svg">
<path d="M30.8361 4.42258H27.761V1.20816L30.8361 4.42258ZM13.9116 29.0018C11.8264 28.9973 10.1357 27.23 10.1312 25.0502V3.63681L1.04486 6.45243C0.672038 6.56572 0.358444 6.83006 0.172034 7.18503C-0.0143807 7.54152 -0.0577298 7.95993 0.0506502 8.34965L6.43204 30.8987C6.66469 31.7114 7.4797 32.1752 8.2586 31.938L17.7615 29.0015L13.9116 29.0018ZM31.9922 6.83944V25.0506C31.9907 25.898 31.3347 26.5837 30.524 26.5853H13.9117C13.101 26.5838 12.4449 25.898 12.4435 25.0506V1.53472C12.4449 0.687316 13.1009 0.00154679 13.9117 0H25.4492V5.63109C25.4463 5.95283 25.5677 6.26249 25.7845 6.48909C26.0012 6.71569 26.2975 6.84256 26.6053 6.83953L31.9922 6.83944ZM15.0791 5.63553C15.0791 6.30321 15.5964 6.84396 16.2352 6.84396H20.1846C20.8233 6.84396 21.3406 6.30321 21.3406 5.63553C21.3406 4.96786 20.8233 4.4271 20.1846 4.4271H16.2352C15.9288 4.4271 15.634 4.55399 15.4173 4.78057C15.2005 5.00715 15.0791 5.31531 15.0791 5.63553ZM29.3634 19.9735C29.3634 19.3058 28.8461 18.7651 28.2074 18.7651H16.2352C15.5964 18.7651 15.0791 19.3058 15.0791 19.9735C15.0791 20.6412 15.5964 21.1819 16.2352 21.1819H28.2074C28.8461 21.1819 29.3634 20.6412 29.3634 19.9735ZM29.3634 15.1943C29.3634 14.5266 28.8461 13.9859 28.2074 13.9859H16.2352C15.5964 13.9859 15.0791 14.5266 15.0791 15.1943C15.0791 15.862 15.5964 16.4027 16.2352 16.4027H28.2074C28.8461 16.4027 29.3634 15.862 29.3634 15.1943ZM29.3634 10.4151C29.3634 9.74744 28.8461 9.20668 28.2074 9.20668H16.2352C15.5964 9.20668 15.0791 9.74744 15.0791 10.4151C15.0791 11.0828 15.5964 11.6235 16.2352 11.6235H28.2074C28.8461 11.6235 29.3634 11.0828 29.3634 10.4151Z" fill="white"/>
</svg>
