<svg width="60" height="60" viewBox="0 0 60 60" fill="none" xmlns="http://www.w3.org/2000/svg">
<path d="M2.68648 23.8573C2.34402 23.6209 2.50347 23.0833 2.91917 23.0728L8.39439 22.9345C8.5803 22.9298 8.74206 22.8056 8.79505 22.6269L10.3554 17.3653C10.4739 16.9658 11.0332 16.9516 11.1717 17.3446L12.9955 22.5207C13.0574 22.6965 13.2252 22.8123 13.411 22.8076L18.8859 22.6696C19.3016 22.6591 19.4879 23.1879 19.1577 23.4413L14.8095 26.779C14.6618 26.8923 14.6038 27.088 14.6657 27.2638L16.4887 32.4404C16.6271 32.8335 16.1829 33.1745 15.8404 32.938L11.3296 29.824C11.1765 29.7183 10.9728 29.7234 10.8252 29.8367L6.4766 33.174C6.14642 33.4274 5.68565 33.1092 5.80416 32.7097L7.36485 27.4482C7.41785 27.2695 7.35004 27.077 7.19688 26.9712L2.68648 23.8573Z" fill="white"/>
<path d="M53.7329 32.468C53.8688 32.8619 53.4225 33.2001 53.0815 32.9615L48.5904 29.8196C48.4379 29.7129 48.2342 29.7167 48.0859 29.8291L43.717 33.1393C43.3853 33.3906 42.9265 33.0696 43.0475 32.6708L44.6408 27.419C44.6949 27.2406 44.6283 27.0476 44.4758 26.941L39.9849 23.7991C39.6439 23.5605 39.8067 23.024 40.2225 23.0161L45.6984 22.9124C45.8844 22.9089 46.0469 22.7857 46.101 22.6074L47.6943 17.3548C47.8153 16.956 48.3747 16.9453 48.5107 17.3392L50.3016 22.5272C50.3624 22.7034 50.5295 22.8203 50.7155 22.8167L56.191 22.7124C56.6068 22.7045 56.7898 23.2345 56.458 23.4858L52.0891 26.7964C51.9408 26.9088 51.8815 27.1041 51.9423 27.2803L53.7329 32.468Z" fill="white"/>
<path d="M37.0607 54.5199C36.726 54.7674 36.271 54.4409 36.3967 54.0436L38.0522 48.8112C38.1084 48.6335 38.0441 48.4397 37.8929 48.3312L33.439 45.1363C33.1009 44.8937 33.2699 44.3591 33.6858 44.3561L39.1627 44.3165C39.3486 44.3151 39.5126 44.1939 39.5688 44.0162L41.2236 38.7837C41.3493 38.3863 41.9088 38.3823 42.0401 38.7778L43.7701 43.9867C43.8288 44.1636 43.9945 44.2824 44.1805 44.2811L49.6568 44.2418C50.0726 44.2388 50.2493 44.7709 49.9147 45.0183L45.5072 48.2766C45.3575 48.3873 45.2959 48.5819 45.3546 48.7588L47.0839 53.9673C47.2152 54.3628 46.7649 54.6957 46.4267 54.4531L41.9729 51.2582C41.8217 51.1497 41.6179 51.1511 41.4683 51.2618L37.0607 54.5199Z" fill="white"/>
<path d="M16.4065 39.1059C16.5256 38.7065 17.085 38.6932 17.2228 39.0865L19.0385 44.2658C19.1002 44.4417 19.2678 44.5578 19.4537 44.5534L24.9292 44.4234C25.345 44.4135 25.5304 44.9427 25.1999 45.1956L20.8467 48.5264C20.6988 48.6395 20.6405 48.8352 20.7021 49.011L22.5175 54.1907C22.6553 54.584 22.2105 54.9243 21.8684 54.6873L17.3628 51.5667C17.2098 51.4607 17.0062 51.4655 16.8583 51.5786L12.5047 54.9096C12.1741 55.1625 11.7138 54.8437 11.8329 54.4443L13.4013 49.1851C13.4546 49.0065 13.3871 48.8139 13.2341 48.7079L8.72796 45.5871C8.38585 45.3502 8.54608 44.8129 8.9618 44.803L14.437 44.6727C14.6229 44.6683 14.7848 44.5444 14.8381 44.3658L16.4065 39.1059Z" fill="white"/>
<path d="M29.4544 5.29729C29.5829 4.9009 30.1424 4.9009 30.2709 5.29729L31.8676 10.222C31.9251 10.3993 32.0899 10.5193 32.2759 10.5193H37.442C37.8579 10.5193 38.0308 11.0527 37.6943 11.2977L33.5145 14.3413C33.364 14.4509 33.301 14.6451 33.3585 14.8224L34.9555 19.7473C35.084 20.1437 34.6313 20.4734 34.2949 20.2284L30.115 17.1847C29.9645 17.0752 29.7608 17.0752 29.6104 17.1847L25.4307 20.2285C25.0943 20.4735 24.6416 20.1438 24.7701 19.7474L26.3665 14.8224C26.4239 14.6451 26.361 14.4509 26.2105 14.3414L22.0313 11.2977C21.6949 11.0527 21.8678 10.5193 22.2836 10.5193H27.4495C27.6354 10.5193 27.8003 10.3993 27.8577 10.222L29.4544 5.29729Z" fill="white"/>
</svg>
