<svg width="61" height="61" viewBox="0 0 61 61" fill="none" xmlns="http://www.w3.org/2000/svg">
<path d="M2.93844 23.9115C2.59597 23.6751 2.75542 23.1375 3.17113 23.127L8.64634 22.9887C8.83226 22.984 8.99401 22.8598 9.047 22.6811L10.6074 17.4195C10.7259 17.02 11.2852 17.0058 11.4236 17.3988L13.2474 22.5749C13.3094 22.7507 13.4771 22.8665 13.663 22.8618L19.1379 22.7238C19.5536 22.7133 19.7398 23.2421 19.4097 23.4955L15.0614 26.8332C14.9138 26.9465 14.8557 27.1422 14.9176 27.318L16.7407 32.4946C16.8791 32.8877 16.4348 33.2287 16.0924 32.9922L11.5816 29.8782C11.4284 29.7725 11.2248 29.7776 11.0771 29.8909L6.72855 33.2282C6.39838 33.4816 5.9376 33.1634 6.05611 32.7639L7.61681 27.5024C7.66981 27.3237 7.60199 27.1312 7.44884 27.0254L2.93844 23.9115Z" fill="#0066FF"/>
<path d="M53.9848 32.5222C54.1208 32.9161 53.6745 33.2543 53.3335 33.0157L48.8424 29.8738C48.6899 29.7671 48.4862 29.7709 48.3378 29.8833L43.969 33.1935C43.6372 33.4448 43.1784 33.1238 43.2994 32.725L44.8928 27.4732C44.9469 27.2948 44.8802 27.1018 44.7277 26.9952L40.2369 23.8533C39.8958 23.6147 40.0587 23.0782 40.4744 23.0703L45.9504 22.9666C46.1363 22.9631 46.2989 22.8399 46.353 22.6616L47.9463 17.409C48.0672 17.0101 48.6267 16.9995 48.7627 17.3934L50.5536 22.5814C50.6144 22.7576 50.7815 22.8745 50.9674 22.8709L56.4429 22.7666C56.8587 22.7587 57.0417 23.2887 56.71 23.54L52.3411 26.8506C52.1927 26.963 52.1335 27.1583 52.1943 27.3345L53.9848 32.5222Z" fill="#0066FF"/>
<path d="M37.3127 54.5737C36.978 54.8211 36.523 54.4946 36.6487 54.0973L38.3042 48.8649C38.3604 48.6872 38.2961 48.4934 38.1448 48.3849L33.691 45.19C33.3528 44.9474 33.5219 44.4128 33.9377 44.4098L39.4146 44.3702C39.6006 44.3688 39.7645 44.2476 39.8207 44.0699L41.4756 38.8374C41.6012 38.44 42.1608 38.436 42.2921 38.8315L44.022 44.0404C44.0808 44.2173 44.2464 44.3361 44.4324 44.3348L49.9087 44.2955C50.3246 44.2925 50.5013 44.8246 50.1666 45.072L45.7591 48.3303C45.6095 48.441 45.5479 48.6356 45.6066 48.8125L47.3358 54.021C47.4671 54.4165 47.0169 54.7494 46.6787 54.5068L42.2248 51.3119C42.0736 51.2034 41.8699 51.2048 41.7202 51.3155L37.3127 54.5737Z" fill="#0066FF"/>
<path d="M16.6585 39.1596C16.7776 38.7602 17.3369 38.7469 17.4748 39.1402L19.2905 44.3196C19.3521 44.4954 19.5197 44.6115 19.7056 44.6071L25.1812 44.4771C25.5969 44.4673 25.7824 44.9964 25.4518 45.2493L21.0986 48.5801C20.9508 48.6932 20.8924 48.8889 20.9541 49.0647L22.7694 54.2444C22.9072 54.6377 22.4625 54.978 22.1204 54.741L17.6148 51.6204C17.4618 51.5144 17.2581 51.5192 17.1103 51.6323L12.7566 54.9633C12.4261 55.2162 11.9658 54.8974 12.0849 54.498L13.6533 49.2388C13.7065 49.0602 13.639 48.8676 13.486 48.7616L8.97992 45.6408C8.6378 45.4039 8.79803 44.8666 9.21375 44.8567L14.6889 44.7264C14.8748 44.722 15.0368 44.5981 15.09 44.4195L16.6585 39.1596Z" fill="#0066FF"/>
<path d="M29.7064 5.351C29.8349 4.95461 30.3944 4.95461 30.5229 5.351L32.1196 10.2757C32.177 10.453 32.3419 10.573 32.5278 10.573H37.694C38.1098 10.573 38.2827 11.1064 37.9463 11.3514L33.7664 14.395C33.6159 14.5046 33.553 14.6989 33.6105 14.8762L35.2074 19.801C35.336 20.1974 34.8833 20.5271 34.5469 20.2821L30.3669 17.2385C30.2165 17.1289 30.0128 17.1289 29.8623 17.2385L25.6827 20.2822C25.3462 20.5272 24.8936 20.1976 25.0221 19.8011L26.6184 14.8761C26.6759 14.6988 26.6129 14.5046 26.4625 14.3951L22.2832 11.3514C21.9468 11.1064 22.1197 10.573 22.5356 10.573H27.7014C27.8874 10.573 28.0522 10.453 28.1097 10.2757L29.7064 5.351Z" fill="#0066FF"/>
</svg>
