<svg width="50" height="30" viewBox="0 0 50 30" fill="none" xmlns="http://www.w3.org/2000/svg">
<path d="M0.871094 5.02734H44.2613V8.01067H0.871094V5.02734Z" fill="white"/>
<path d="M7.24384 17.0742C6.07428 17.0742 5.1377 18.0108 5.1377 19.1804C5.1377 20.3499 6.07428 21.2865 7.24384 21.2865H7.47684C7.12506 20.6423 6.95145 19.9411 6.95145 19.1804C6.95145 18.4197 7.12734 17.7184 7.47684 17.0742C7.36263 17.1336 7.30324 17.0742 7.24384 17.0742Z" fill="white"/>
<path d="M44.2613 1.16956C44.2613 0.525368 43.7359 0 43.0917 0H2.04066C1.39646 0 0.871094 0.525391 0.871094 1.16956V2.69093H44.2613V1.16956Z" fill="white"/>
<path d="M43.0917 13.8583C43.5006 13.8583 43.8524 13.9177 44.2613 13.9177V10.3496H0.871094V25.2019C0.871094 25.8461 1.39648 26.3714 2.04066 26.3714H34.4364C34.0846 25.3778 33.8516 24.3247 33.8516 23.1552C33.8516 18.0109 38.0045 13.8583 43.0917 13.8583ZM11.3972 23.6832C10.6365 23.6832 9.93521 23.5073 9.29101 23.1578C8.64682 23.5096 7.94555 23.6832 7.24428 23.6832C4.78866 23.6832 2.799 21.6959 2.799 19.238C2.799 16.7823 4.78632 14.7927 7.24428 14.7927C8.00496 14.7927 8.70623 14.9686 9.29101 15.3181C9.93521 14.9663 10.6365 14.7927 11.3972 14.7927C13.8528 14.7927 15.8424 16.78 15.8424 19.238C15.8424 21.6936 13.8528 23.6832 11.3972 23.6832Z" fill="white"/>
<path d="M11.3972 17.0742C10.2276 17.0742 9.29102 18.0108 9.29102 19.1804C9.29102 20.3499 10.2276 21.2865 11.3972 21.2865C12.5667 21.2865 13.5033 20.3499 13.5033 19.1804C13.5033 18.0108 12.5667 17.0742 11.3972 17.0742Z" fill="white"/>
<path d="M43.0914 16.1973C39.2904 16.1973 36.1904 19.2971 36.1904 23.0983C36.1904 26.8995 39.2902 29.9993 43.0914 29.9993C46.8926 29.9993 49.9924 26.8995 49.9924 23.0983C49.9924 19.2971 46.8926 16.1973 43.0914 16.1973ZM46.9519 22.1047L43.2103 25.8464C42.9773 26.0794 42.6849 26.1982 42.3925 26.1982C42.1001 26.1982 41.8077 26.0817 41.5747 25.8464L39.2356 23.5073C38.7673 23.039 38.7673 22.3377 39.2356 21.8694C39.7039 21.4011 40.4052 21.4011 40.8735 21.8694L42.3948 23.3908L45.3187 20.4669C45.787 19.9986 46.4883 19.9986 46.9566 20.4669C47.4203 20.8758 47.4202 21.6364 46.9519 22.1047Z" fill="white"/>
</svg>
