<svg width="51" height="46" viewBox="0 0 51 46" fill="none" xmlns="http://www.w3.org/2000/svg">
<path d="M9.99288 18.8057H1.64354C0.863967 18.8057 0.251953 19.4177 0.251953 20.1973V42.4626C0.251953 43.2422 0.86394 43.8542 1.64354 43.8542H9.99288C10.7724 43.8542 11.3837 43.2422 11.3837 42.4626L11.3841 20.1982C11.3848 19.4182 10.7728 18.8062 9.99287 18.8062L9.99288 18.8057Z" fill="#0066FF"/>
<path d="M50.2515 21.4433C50.2515 19.1759 48.6946 16.8808 45.7209 16.8808H32.2396C34.1654 13.4355 34.732 8.58983 33.393 5.04495C32.4096 2.43733 30.5301 0.915383 28.0982 0.760732L28.0588 0.757509C26.476 0.660464 25.1063 1.84612 24.9745 3.426C24.6278 6.94246 23.0869 13.1625 20.8789 15.3709C19.0197 17.2301 17.4283 18.009 14.7899 19.2989C14.4081 19.4858 13.991 19.6896 13.5498 19.9094C13.5577 20.0051 13.5627 20.1003 13.5627 20.1981V42.2361C13.881 42.3453 14.1954 42.4535 14.5044 42.5595C18.8585 44.0602 22.6214 45.3558 28.3726 45.3558H39.2716C42.2459 45.3558 43.8022 43.0601 43.8022 40.7933C43.8022 40.1204 43.6658 39.4458 43.3954 38.828C44.3859 38.65 45.2532 38.1734 45.8956 37.4443C46.6247 36.6157 47.0265 35.5145 47.0265 34.3432C47.0265 33.6725 46.89 32.9982 46.6207 32.3819C49.0085 31.9697 50.2518 29.92 50.2518 27.8939C50.2518 26.7187 49.8332 25.5354 49.0163 24.6692C49.8317 23.8023 50.2511 22.6192 50.2511 21.4438L50.2515 21.4433Z" fill="#0066FF"/>
</svg>
