<svg width="61" height="60" viewBox="0 0 61 60" fill="none" xmlns="http://www.w3.org/2000/svg">
<path d="M15.2409 23.752H6.89159C6.11201 23.752 5.5 24.3639 5.5 25.1435V47.4089C5.5 48.1885 6.11199 48.8005 6.89159 48.8005H15.2409C16.0205 48.8005 16.6318 48.1885 16.6318 47.4089L16.6321 25.1445C16.6328 24.3645 16.0209 23.7525 15.2409 23.7525L15.2409 23.752Z" fill="white"/>
<path d="M55.4996 26.3896C55.4996 24.1222 53.9426 21.8271 50.969 21.8271H37.4876C39.4135 18.3818 39.98 13.5361 38.641 9.99124C37.6577 7.38362 35.7781 5.86167 33.3462 5.70702L33.3068 5.7038C31.724 5.60675 30.3543 6.79241 30.2225 8.37229C29.8759 11.8887 28.335 18.1088 26.127 20.3172C24.2678 22.1764 22.6763 22.9553 20.0379 24.2452C19.6562 24.4321 19.239 24.6359 18.7979 24.8557C18.8057 24.9513 18.8107 25.0466 18.8107 25.1444V47.1824C19.1291 47.2916 19.4435 47.3997 19.7525 47.5057C24.1066 49.0065 27.8694 50.3021 33.6207 50.3021H44.5196C47.4939 50.3021 49.0503 48.0064 49.0503 45.7396C49.0503 45.0667 48.9138 44.3921 48.6435 43.7743C49.634 43.5963 50.5013 43.1197 51.1436 42.3906C51.8727 41.562 52.2745 40.4608 52.2745 39.2895C52.2745 38.6188 52.1381 37.9445 51.8688 37.3282C54.2566 36.916 55.4998 34.8663 55.4998 32.8402C55.4998 31.6649 55.0812 30.4817 54.2644 29.6155C55.0798 28.7486 55.4991 27.5654 55.4991 26.3901L55.4996 26.3896Z" fill="white"/>
</svg>
