<svg width="32" height="29" viewBox="0 0 32 29" fill="none" xmlns="http://www.w3.org/2000/svg">
<path d="M6.42847 12.1074H1.22724C0.741606 12.1074 0.360352 12.4887 0.360352 12.9743V26.8446C0.360352 27.3302 0.741589 27.7114 1.22724 27.7114H6.42847C6.9141 27.7114 7.2949 27.3302 7.2949 26.8446L7.29512 12.9749C7.29557 12.489 6.91433 12.1078 6.42846 12.1078L6.42847 12.1074Z" fill="#3E5174"/>
<path d="M31.5079 13.7491C31.5079 12.3366 30.538 10.9068 28.6856 10.9068H20.2873C21.487 8.76062 21.84 5.74198 21.0059 3.5337C20.3933 1.90928 19.2224 0.961184 17.7075 0.864844L17.6829 0.862836C16.6969 0.802382 15.8437 1.54099 15.7615 2.52517C15.5456 4.71576 14.5857 8.59055 13.2102 9.96626C12.052 11.1245 11.0606 11.6096 9.41702 12.4132C9.17922 12.5296 8.91934 12.6566 8.64453 12.7935C8.64944 12.8531 8.65256 12.9124 8.65256 12.9733V26.702C8.85088 26.77 9.04673 26.8374 9.23923 26.9034C11.9516 27.8383 14.2957 28.6454 17.8784 28.6454H24.6679C26.5208 28.6454 27.4903 27.2153 27.4903 25.8032C27.4903 25.384 27.4053 24.9637 27.2369 24.5789C27.8539 24.468 28.3942 24.1711 28.7944 23.7169C29.2485 23.2007 29.4988 22.5147 29.4988 21.7851C29.4988 21.3673 29.4138 20.9472 29.2461 20.5633C30.7336 20.3065 31.5081 19.0297 31.5081 17.7675C31.5081 17.0354 31.2473 16.2983 30.7384 15.7587C31.2464 15.2186 31.5076 14.4816 31.5076 13.7494L31.5079 13.7491Z" fill="#3E5174"/>
</svg>
