<svg width="45" height="52" viewBox="0 0 45 52" fill="none" xmlns="http://www.w3.org/2000/svg">
<path d="M24.0283 6.80736C35.37 7.63813 44.252 17.3304 44.252 28.9612C44.252 41.2843 34.4134 51.2535 22.252 51.2535C10.0905 51.2535 0.251953 41.2843 0.251953 28.9612C0.251953 17.3304 9.13394 7.63813 20.4756 6.80736V4.31505H17.0594V0.853516H27.3079V4.31505H24.0283V6.80736ZM22.252 10.2689C12.0035 10.2689 3.6681 18.5766 3.6681 28.9612C3.6681 39.3458 12.0035 47.792 22.252 47.792C32.5004 47.792 40.6992 39.3458 40.6992 28.9612C40.6992 18.5766 32.5004 10.2689 22.252 10.2689Z" fill="#0066FF"/>
<path fill-rule="evenodd" clip-rule="evenodd" d="M22.252 28.8228H38.5129C38.6495 37.9613 31.134 45.5767 22.252 45.5767C13.2334 45.5767 5.85449 38.0998 5.85449 28.9613C5.85449 19.8228 13.2334 12.4844 22.252 12.4844V28.8228Z" fill="#0066FF"/>
</svg>
